# xmcd CD database file
#
# Track frame offsets:
#	150
#	11892
#	25644
#	36961
#	48049
#	60330
#	77184
#	91723
#	105699
#	119922
#	133700
#	145562
#	154728
#	169602
#	180607
#	196974
#	212714
#	226804
#	239642
#	251057
#
# Disc length: 3518 seconds
#
# Revision: 0
# Processed by: cddbd v1.5.2PL0 Copyright (c) Steve Scherf et al.
# Submitted via: CDex 1.51
#
DISCID=090dbc14
DTITLE=Nature - 100 moments nature
DYEAR=2009
DGENRE=New Age
TTITLE0=Ruisseau du lubéron
TTITLE1=Une rivière enchantée
TTITLE2=Petit ruisseau
TTITLE3=Résurgence
TTITLE4=Clarines d'automne
TTITLE5=La rivière suit son cours
TTITLE6=Une rivière d'été
TTITLE7=Rivière et grillons champêtres
TTITLE8=Rossignol et cascade
TTITLE9=Rivière et rouge-gorge
TTITLE10=Un ruisseau en forêt
TTITLE11=Le pont de bois
TTITLE12=L'eau vive
TTITLE13=Torrent Cristallin
TTITLE14=Torrent
TTITLE15=Au bord du lac
TTITLE16=Retour au lac myvatn
TTITLE17=L'eau souterraine
TTITLE18=Cascade
TTITLE19=La rivière continue sa route
EXTD=YEAR: 2009
EXTT0=
EXTT1=
EXTT2=
EXTT3=
EXTT4=
EXTT5=
EXTT6=
EXTT7=
EXTT8=
EXTT9=
EXTT10=
EXTT11=
EXTT12=
EXTT13=
EXTT14=
EXTT15=
EXTT16=
EXTT17=
EXTT18=
EXTT19=
PLAYORDER=
